<mxfile host="app.diagrams.net" modified="2024-03-27T00:48:39.261Z" agent="Mozilla/5.0 (Windows NT 10.0; Win64; x64) AppleWebKit/537.36 (KHTML, like Gecko) Chrome/122.0.0.0 Safari/537.36 Edg/122.0.0.0" etag="zt4PzG5RFzKM_Nl2Xndd" version="24.2.0" type="github">
  <diagram id="R2lEEEUBdFMjLlhIrx00" name="Page-1">
    <mxGraphModel dx="872" dy="1591" grid="1" gridSize="10" guides="1" tooltips="1" connect="1" arrows="1" fold="1" page="1" pageScale="1" pageWidth="850" pageHeight="1100" math="0" shadow="0" extFonts="Permanent Marker^https://fonts.googleapis.com/css?family=Permanent+Marker">
      <root>
        <mxCell id="0" />
        <mxCell id="1" parent="0" />
        <mxCell id="reU6oYKR1fwZ8nNXFa11-28" value="Cliente" style="swimlane;childLayout=stackLayout;horizontal=1;startSize=50;horizontalStack=0;rounded=1;fontSize=14;fontStyle=0;strokeWidth=2;resizeParent=0;resizeLast=1;shadow=0;dashed=0;align=center;arcSize=4;whiteSpace=wrap;html=1;" vertex="1" parent="1">
          <mxGeometry x="160" y="150" width="160" height="140" as="geometry" />
        </mxCell>
        <mxCell id="reU6oYKR1fwZ8nNXFa11-29" value="Nome&lt;div&gt;CPF&lt;br&gt;Idade&lt;/div&gt;&lt;div&gt;Telefone&lt;/div&gt;&lt;div&gt;Endereço&lt;/div&gt;" style="align=left;strokeColor=none;fillColor=none;spacingLeft=4;fontSize=12;verticalAlign=top;resizable=0;rotatable=0;part=1;html=1;" vertex="1" parent="reU6oYKR1fwZ8nNXFa11-28">
          <mxGeometry y="50" width="160" height="90" as="geometry" />
        </mxCell>
        <mxCell id="reU6oYKR1fwZ8nNXFa11-33" value="ID_Cliente" style="ellipse;whiteSpace=wrap;html=1;align=center;fontStyle=4;" vertex="1" parent="1">
          <mxGeometry x="340" y="130" width="100" height="40" as="geometry" />
        </mxCell>
        <mxCell id="reU6oYKR1fwZ8nNXFa11-34" value="" style="endArrow=none;html=1;rounded=0;exitX=1;exitY=0.25;exitDx=0;exitDy=0;" edge="1" parent="1" source="reU6oYKR1fwZ8nNXFa11-28" target="reU6oYKR1fwZ8nNXFa11-33">
          <mxGeometry relative="1" as="geometry">
            <mxPoint x="440" y="330" as="sourcePoint" />
            <mxPoint x="600" y="330" as="targetPoint" />
          </mxGeometry>
        </mxCell>
        <mxCell id="reU6oYKR1fwZ8nNXFa11-36" value="Relacionamento" style="shape=rhombus;perimeter=rhombusPerimeter;whiteSpace=wrap;html=1;align=center;" vertex="1" parent="1">
          <mxGeometry x="370" y="190" width="120" height="60" as="geometry" />
        </mxCell>
        <mxCell id="reU6oYKR1fwZ8nNXFa11-39" value="" style="endArrow=none;html=1;rounded=0;exitX=1;exitY=0.5;exitDx=0;exitDy=0;entryX=0.006;entryY=0.143;entryDx=0;entryDy=0;entryPerimeter=0;" edge="1" parent="1" source="reU6oYKR1fwZ8nNXFa11-36" target="reU6oYKR1fwZ8nNXFa11-54">
          <mxGeometry relative="1" as="geometry">
            <mxPoint x="440" y="330" as="sourcePoint" />
            <mxPoint x="530" y="210.01" as="targetPoint" />
          </mxGeometry>
        </mxCell>
        <mxCell id="reU6oYKR1fwZ8nNXFa11-40" value="" style="endArrow=none;html=1;rounded=0;exitX=1;exitY=0.25;exitDx=0;exitDy=0;entryX=0;entryY=0.5;entryDx=0;entryDy=0;" edge="1" parent="1" source="reU6oYKR1fwZ8nNXFa11-29" target="reU6oYKR1fwZ8nNXFa11-36">
          <mxGeometry relative="1" as="geometry">
            <mxPoint x="320" y="201" as="sourcePoint" />
            <mxPoint x="370" y="219" as="targetPoint" />
          </mxGeometry>
        </mxCell>
        <mxCell id="reU6oYKR1fwZ8nNXFa11-53" value="Serviço_Contrato" style="swimlane;childLayout=stackLayout;horizontal=1;startSize=50;horizontalStack=0;rounded=1;fontSize=14;fontStyle=0;strokeWidth=2;resizeParent=0;resizeLast=1;shadow=0;dashed=0;align=center;arcSize=4;whiteSpace=wrap;html=1;" vertex="1" parent="1">
          <mxGeometry x="540" y="160" width="160" height="150" as="geometry" />
        </mxCell>
        <mxCell id="reU6oYKR1fwZ8nNXFa11-54" value="ID_Serviço&lt;div&gt;Data_inicio&lt;/div&gt;&lt;div&gt;Data_fim&lt;/div&gt;&lt;div&gt;ID_Cliente&lt;/div&gt;&lt;div&gt;Orçamento&lt;br&gt;&lt;div&gt;&lt;br&gt;&lt;/div&gt;&lt;/div&gt;" style="align=left;strokeColor=none;fillColor=none;spacingLeft=4;fontSize=12;verticalAlign=top;resizable=0;rotatable=0;part=1;html=1;" vertex="1" parent="reU6oYKR1fwZ8nNXFa11-53">
          <mxGeometry y="50" width="160" height="100" as="geometry" />
        </mxCell>
        <mxCell id="reU6oYKR1fwZ8nNXFa11-55" value="Serviço" style="swimlane;childLayout=stackLayout;horizontal=1;startSize=50;horizontalStack=0;rounded=1;fontSize=14;fontStyle=0;strokeWidth=2;resizeParent=0;resizeLast=1;shadow=0;dashed=0;align=center;arcSize=4;whiteSpace=wrap;html=1;" vertex="1" parent="1">
          <mxGeometry x="540" y="-70" width="160" height="120" as="geometry" />
        </mxCell>
        <mxCell id="reU6oYKR1fwZ8nNXFa11-56" value="Descrição&lt;div&gt;Nome&lt;/div&gt;" style="align=left;strokeColor=none;fillColor=none;spacingLeft=4;fontSize=12;verticalAlign=top;resizable=0;rotatable=0;part=1;html=1;" vertex="1" parent="reU6oYKR1fwZ8nNXFa11-55">
          <mxGeometry y="50" width="160" height="70" as="geometry" />
        </mxCell>
        <mxCell id="reU6oYKR1fwZ8nNXFa11-58" value="Relacionamento" style="shape=rhombus;perimeter=rhombusPerimeter;whiteSpace=wrap;html=1;align=center;" vertex="1" parent="1">
          <mxGeometry x="560" y="70" width="120" height="60" as="geometry" />
        </mxCell>
        <mxCell id="reU6oYKR1fwZ8nNXFa11-59" value="" style="endArrow=none;html=1;rounded=0;exitX=0.5;exitY=1;exitDx=0;exitDy=0;entryX=0.5;entryY=0;entryDx=0;entryDy=0;" edge="1" parent="1" source="reU6oYKR1fwZ8nNXFa11-58" target="reU6oYKR1fwZ8nNXFa11-53">
          <mxGeometry relative="1" as="geometry">
            <mxPoint x="629" y="140" as="sourcePoint" />
            <mxPoint x="680" y="144" as="targetPoint" />
          </mxGeometry>
        </mxCell>
        <mxCell id="reU6oYKR1fwZ8nNXFa11-60" value="" style="endArrow=none;html=1;rounded=0;entryX=0.5;entryY=0;entryDx=0;entryDy=0;exitX=0.5;exitY=1;exitDx=0;exitDy=0;" edge="1" parent="1" source="reU6oYKR1fwZ8nNXFa11-56" target="reU6oYKR1fwZ8nNXFa11-58">
          <mxGeometry relative="1" as="geometry">
            <mxPoint x="640" y="60" as="sourcePoint" />
            <mxPoint x="619.5" y="80" as="targetPoint" />
          </mxGeometry>
        </mxCell>
        <mxCell id="reU6oYKR1fwZ8nNXFa11-61" value="ID_Contrato" style="ellipse;whiteSpace=wrap;html=1;align=center;fontStyle=4;" vertex="1" parent="1">
          <mxGeometry x="730" y="130" width="100" height="40" as="geometry" />
        </mxCell>
        <mxCell id="reU6oYKR1fwZ8nNXFa11-63" value="" style="endArrow=none;html=1;rounded=0;entryX=0.5;entryY=1;entryDx=0;entryDy=0;exitX=1.013;exitY=0.13;exitDx=0;exitDy=0;exitPerimeter=0;" edge="1" parent="1" source="reU6oYKR1fwZ8nNXFa11-54" target="reU6oYKR1fwZ8nNXFa11-61">
          <mxGeometry relative="1" as="geometry">
            <mxPoint x="440" y="180" as="sourcePoint" />
            <mxPoint x="600" y="180" as="targetPoint" />
          </mxGeometry>
        </mxCell>
        <mxCell id="reU6oYKR1fwZ8nNXFa11-64" value="&lt;span style=&quot;text-align: left; text-wrap: nowrap;&quot;&gt;ID_Serviço&lt;/span&gt;" style="ellipse;whiteSpace=wrap;html=1;align=center;fontStyle=4;" vertex="1" parent="1">
          <mxGeometry x="400" y="-80" width="100" height="40" as="geometry" />
        </mxCell>
        <mxCell id="reU6oYKR1fwZ8nNXFa11-65" value="" style="endArrow=none;html=1;rounded=0;exitX=1;exitY=0.5;exitDx=0;exitDy=0;entryX=0.006;entryY=0.4;entryDx=0;entryDy=0;entryPerimeter=0;" edge="1" parent="1" source="reU6oYKR1fwZ8nNXFa11-64" target="reU6oYKR1fwZ8nNXFa11-56">
          <mxGeometry relative="1" as="geometry">
            <mxPoint x="440" y="100" as="sourcePoint" />
            <mxPoint x="540" as="targetPoint" />
          </mxGeometry>
        </mxCell>
        <mxCell id="reU6oYKR1fwZ8nNXFa11-68" value="CompraProduto" style="swimlane;childLayout=stackLayout;horizontal=1;startSize=50;horizontalStack=0;rounded=1;fontSize=14;fontStyle=0;strokeWidth=2;resizeParent=0;resizeLast=1;shadow=0;dashed=0;align=center;arcSize=4;whiteSpace=wrap;html=1;" vertex="1" parent="1">
          <mxGeometry x="160" y="420" width="160" height="120" as="geometry" />
        </mxCell>
        <mxCell id="reU6oYKR1fwZ8nNXFa11-69" value="Quant&lt;br&gt;&lt;div&gt;ID_Cliente&lt;/div&gt;&lt;div&gt;ID_Produto&lt;/div&gt;&lt;div&gt;Data_de_Compra&lt;/div&gt;" style="align=left;strokeColor=none;fillColor=none;spacingLeft=4;fontSize=12;verticalAlign=top;resizable=0;rotatable=0;part=1;html=1;" vertex="1" parent="reU6oYKR1fwZ8nNXFa11-68">
          <mxGeometry y="50" width="160" height="70" as="geometry" />
        </mxCell>
        <mxCell id="reU6oYKR1fwZ8nNXFa11-72" value="Relacionamento" style="shape=rhombus;perimeter=rhombusPerimeter;whiteSpace=wrap;html=1;align=center;" vertex="1" parent="1">
          <mxGeometry x="170" y="320" width="120" height="60" as="geometry" />
        </mxCell>
        <mxCell id="reU6oYKR1fwZ8nNXFa11-73" value="" style="endArrow=none;html=1;rounded=0;entryX=0.5;entryY=0;entryDx=0;entryDy=0;exitX=0.419;exitY=1;exitDx=0;exitDy=0;exitPerimeter=0;" edge="1" parent="1" source="reU6oYKR1fwZ8nNXFa11-29" target="reU6oYKR1fwZ8nNXFa11-72">
          <mxGeometry relative="1" as="geometry">
            <mxPoint x="240" y="300" as="sourcePoint" />
            <mxPoint x="380" y="230" as="targetPoint" />
          </mxGeometry>
        </mxCell>
        <mxCell id="reU6oYKR1fwZ8nNXFa11-75" value="" style="endArrow=none;html=1;rounded=0;entryX=0.456;entryY=0;entryDx=0;entryDy=0;exitX=0.5;exitY=1;exitDx=0;exitDy=0;entryPerimeter=0;" edge="1" parent="1" source="reU6oYKR1fwZ8nNXFa11-72" target="reU6oYKR1fwZ8nNXFa11-68">
          <mxGeometry relative="1" as="geometry">
            <mxPoint x="237" y="300" as="sourcePoint" />
            <mxPoint x="240" y="330" as="targetPoint" />
            <Array as="points">
              <mxPoint x="230" y="420" />
            </Array>
          </mxGeometry>
        </mxCell>
        <mxCell id="reU6oYKR1fwZ8nNXFa11-76" value="&lt;span style=&quot;text-align: left; text-wrap: nowrap;&quot;&gt;ID_CompraProduto&lt;/span&gt;" style="ellipse;whiteSpace=wrap;html=1;align=center;fontStyle=4;" vertex="1" parent="1">
          <mxGeometry x="350" y="380" width="110" height="60" as="geometry" />
        </mxCell>
        <mxCell id="reU6oYKR1fwZ8nNXFa11-77" value="" style="endArrow=none;html=1;rounded=0;exitX=0.5;exitY=1;exitDx=0;exitDy=0;entryX=1.019;entryY=0.357;entryDx=0;entryDy=0;entryPerimeter=0;" edge="1" parent="1" source="reU6oYKR1fwZ8nNXFa11-76" target="reU6oYKR1fwZ8nNXFa11-69">
          <mxGeometry relative="1" as="geometry">
            <mxPoint x="400" y="430" as="sourcePoint" />
            <mxPoint x="600" y="330" as="targetPoint" />
          </mxGeometry>
        </mxCell>
        <mxCell id="reU6oYKR1fwZ8nNXFa11-78" value="" style="endArrow=none;html=1;rounded=0;entryX=1;entryY=0.657;entryDx=0;entryDy=0;entryPerimeter=0;exitX=0;exitY=0.5;exitDx=0;exitDy=0;" edge="1" parent="1" source="reU6oYKR1fwZ8nNXFa11-79" target="reU6oYKR1fwZ8nNXFa11-69">
          <mxGeometry relative="1" as="geometry">
            <mxPoint x="430" y="516" as="sourcePoint" />
            <mxPoint x="600" y="490" as="targetPoint" />
          </mxGeometry>
        </mxCell>
        <mxCell id="reU6oYKR1fwZ8nNXFa11-79" value="Relacionamento" style="shape=rhombus;perimeter=rhombusPerimeter;whiteSpace=wrap;html=1;align=center;" vertex="1" parent="1">
          <mxGeometry x="430" y="480" width="120" height="60" as="geometry" />
        </mxCell>
        <mxCell id="reU6oYKR1fwZ8nNXFa11-80" value="" style="endArrow=none;html=1;rounded=0;entryX=1;entryY=0.5;entryDx=0;entryDy=0;exitX=0.019;exitY=0.371;exitDx=0;exitDy=0;exitPerimeter=0;" edge="1" parent="1" source="reU6oYKR1fwZ8nNXFa11-82" target="reU6oYKR1fwZ8nNXFa11-79">
          <mxGeometry relative="1" as="geometry">
            <mxPoint x="610" y="500" as="sourcePoint" />
            <mxPoint x="600" y="330" as="targetPoint" />
          </mxGeometry>
        </mxCell>
        <mxCell id="reU6oYKR1fwZ8nNXFa11-81" value="Produto" style="swimlane;childLayout=stackLayout;horizontal=1;startSize=50;horizontalStack=0;rounded=1;fontSize=14;fontStyle=0;strokeWidth=2;resizeParent=0;resizeLast=1;shadow=0;dashed=0;align=center;arcSize=4;whiteSpace=wrap;html=1;" vertex="1" parent="1">
          <mxGeometry x="610" y="430" width="160" height="150" as="geometry" />
        </mxCell>
        <mxCell id="reU6oYKR1fwZ8nNXFa11-82" value="Nome&lt;div&gt;Marca&lt;/div&gt;&lt;div&gt;Série&lt;/div&gt;&lt;div&gt;Custo&lt;/div&gt;&lt;div&gt;Estoque&lt;/div&gt;" style="align=left;strokeColor=none;fillColor=none;spacingLeft=4;fontSize=12;verticalAlign=top;resizable=0;rotatable=0;part=1;html=1;" vertex="1" parent="reU6oYKR1fwZ8nNXFa11-81">
          <mxGeometry y="50" width="160" height="100" as="geometry" />
        </mxCell>
        <mxCell id="reU6oYKR1fwZ8nNXFa11-83" value="ID_Produto" style="ellipse;whiteSpace=wrap;html=1;align=center;fontStyle=4;" vertex="1" parent="1">
          <mxGeometry x="590" y="350" width="100" height="40" as="geometry" />
        </mxCell>
        <mxCell id="reU6oYKR1fwZ8nNXFa11-84" value="" style="endArrow=none;html=1;rounded=0;entryX=0.25;entryY=0;entryDx=0;entryDy=0;exitX=0.5;exitY=1;exitDx=0;exitDy=0;" edge="1" parent="1" source="reU6oYKR1fwZ8nNXFa11-83" target="reU6oYKR1fwZ8nNXFa11-81">
          <mxGeometry relative="1" as="geometry">
            <mxPoint x="440" y="490" as="sourcePoint" />
            <mxPoint x="600" y="490" as="targetPoint" />
          </mxGeometry>
        </mxCell>
      </root>
    </mxGraphModel>
  </diagram>
</mxfile>
